<svg xmlns="http://www.w3.org/2000/svg" viewBox="0 0 91 43" fill="none">
  <path d="M17.9292 21.8935C17.9292 20.4839 17.1007 19.5727 15.7932 19.5727H13.0632V24.0529H15.956C17.1486 24.0055 17.9292 23.1654 17.9292 21.8935Z" fill="currentColor"/>
  <path d="M17.1486 26.5778H13.0632V31.5137H17.1486C18.5041 31.5137 19.3757 30.5788 19.3757 29.1454C19.3757 27.5982 18.5041 26.5731 17.1486 26.5731V26.5778Z" fill="currentColor"/>
  <path fill-rule="evenodd" clip-rule="evenodd" d="M40.6315 0H89.6423C90.4853 0 91.127 0.754634 90.9786 1.58044L85.3892 32.966C85.2742 33.6067 84.7139 34.0766 84.053 34.0766H52.4376V41.2526C52.4376 41.993 51.8341 42.5957 51.0822 42.5957H1.3577C0.514747 42.5957 -0.126969 41.8411 0.0214158 41.0153L5.60603 9.62971C5.72097 8.98901 6.2813 8.51915 6.94231 8.51915H39.276V1.34314C39.276 0.602757 39.8795 0 40.6315 0ZM10.1033 34.0624H17.6084V34.0576C20.3671 34.0576 22.3165 32.0121 22.3165 29.1454C22.3165 27.622 21.4209 25.9798 20.1564 25.1635C19.9745 25.0259 19.7446 24.893 19.5147 24.7554C20.3193 23.9153 20.8701 22.7051 20.8701 21.661C20.8701 18.9557 18.916 17.043 16.1621 17.043H10.1033V34.0624ZM25.2381 34.0813H28.1596V17.0858H25.2381V34.0813ZM31.0861 30.5123C32.5803 33.0325 34.7213 34.5654 37.3364 34.5654V34.5607C41.2589 34.5844 43.6585 32.5104 43.6585 29.4967C43.6585 26.1846 40.8767 25.1269 38.4542 24.2058C36.5863 23.4955 34.932 22.8665 34.932 21.3477C34.932 20.0758 35.933 19.155 37.6908 19.155C38.7349 19.1788 39.9226 19.7673 40.6602 21.6989L43.371 20.7355C42.279 17.8166 39.8556 16.5684 37.7148 16.5684C34.2902 16.5447 31.8667 18.3624 31.8667 21.3524C31.8667 24.8476 34.6964 25.8517 37.1376 26.7179C38.9892 27.3749 40.6171 27.9526 40.6171 29.4777C40.6171 30.9632 39.573 31.9741 37.3602 31.9741C36.1006 31.9741 34.7213 31.2432 33.5814 29.098L31.0861 30.5123ZM47.9738 25.5432H50.8953V8.55238H47.9738V25.5432ZM58.0173 25.5622H61.5137L54.6359 17.0668L61.5376 8.54288H58.0413L51.1396 17.0668L58.0173 25.5622ZM64.4592 25.5432H67.3808V8.55238H64.4592V25.5432ZM77.9942 11.063H82.6544V8.53813H70.3023V11.063H75.0104V25.5527H77.9942V11.063Z" fill="currentColor"/>
</svg>