<svg viewBox="0 0 53 53" fill="none" xmlns="http://www.w3.org/2000/svg">
<path d="M24.6479 7.66831L32.962 13.9713C34.059 14.8071 34.3201 16.3567 33.5366 17.4972L28.6875 24.6795C27.8865 25.8548 26.2934 26.1682 25.1094 25.3847L16.1336 19.4473C14.9061 18.6377 14.6014 16.9574 15.4633 15.7647L20.9741 8.22549C21.8273 7.0502 23.4814 6.79773 24.6392 7.67702L24.6479 7.66831Z" fill="#FFDE7E"/>
<path d="M17.7269 12.6481L30.3852 22.181L26.8158 27.5525L14.4883 17.2187L17.7269 12.6481Z" fill="#FFF8E9"/>
<path d="M8.13326 24.7318L14.5321 16.052C14.9238 15.521 15.7596 15.6603 15.9424 16.2958C16.4473 18.0108 17.6836 20.64 20.6958 22.2506C24.3348 24.2007 27.5473 24.0527 28.8619 23.8786C29.2362 23.8263 29.5932 24.0527 29.715 24.4183L31.4649 29.5809C31.6739 30.1903 32.2484 30.5821 32.884 30.5734C35.7395 30.5386 43.4006 31.3482 43.8011 40.8202C43.8446 41.8474 42.9915 42.7006 41.9642 42.7006C38.4296 42.7006 30.7249 42.7006 27.6343 42.7006C26.7725 42.7006 25.9454 42.4133 25.2577 41.891L8.75138 29.224C7.34974 28.1532 7.07115 26.1508 8.11585 24.7318H8.13326Z" fill="#F58D06"/>
<path d="M43.8023 40.8115C43.8458 41.8388 42.9927 42.692 41.9654 42.692H27.6443C26.7824 42.692 25.9553 42.4047 25.2676 41.891L8.76129 29.224C7.35965 28.1532 7.08106 26.1509 8.13447 24.7318L8.70035 23.9657L27.9664 38.7395H43.5934C43.7065 39.3838 43.7849 40.0628 43.811 40.8115H43.8023Z" fill="#FFB200"/>
<path d="M30.6038 26.9866C29.385 27.0736 27.818 27.4393 26.0072 29.0586C25.9027 29.1456 25.7895 29.1805 25.6589 29.1805C25.5109 29.1805 25.3629 29.1282 25.2585 29.015C25.0669 28.7974 25.093 28.4579 25.302 28.2663C27.2173 26.56 28.9323 26.0899 30.2556 25.968L30.6038 26.9866Z" fill="#FFF5C9"/>
<path d="M31.5003 29.6419C30.4904 29.877 29.3239 30.3819 28.0267 31.5311C27.9222 31.6268 27.809 31.6704 27.6785 31.6704C27.5305 31.6704 27.3825 31.6094 27.278 31.4875C27.0865 31.2786 27.1126 30.9391 27.3215 30.7476C28.7319 29.4852 30.0377 28.9106 31.1521 28.632L31.4655 29.5636C31.4655 29.5636 31.4742 29.6071 31.5003 29.6245V29.6419Z" fill="#FFF5C9"/>
</svg>
