<svg viewBox="0 0 53 53" fill="none" xmlns="http://www.w3.org/2000/svg">
<path d="M42.0496 41.2033C40.4739 41.2033 38.9417 40.6374 37.749 39.6188L33.2393 35.7708C32.3165 34.9873 31.1499 34.552 29.9398 34.552H22.8184C21.6083 34.552 20.433 34.9873 19.5189 35.7708L15.0093 39.6188C13.8079 40.6461 12.2844 41.2033 10.7086 41.2033C7.8618 41.2033 5.65051 38.7134 5.97263 35.884L7.68768 21.1711C8.26227 16.2349 12.3366 12.4653 17.2641 12.2389C17.4121 12.2389 17.5688 12.2302 17.7255 12.2302H35.0327C35.1894 12.2302 35.3461 12.2302 35.4941 12.2389C40.4217 12.4653 44.496 16.2262 45.0706 21.1711L46.7856 35.884C47.1164 38.7134 44.9052 41.2033 42.0496 41.2033Z" fill="#FFDA64"/>
<path d="M33.9643 22.1897C35.0124 22.1897 35.8622 21.34 35.8622 20.2918C35.8622 19.2436 35.0124 18.3939 33.9643 18.3939C32.9161 18.3939 32.0664 19.2436 32.0664 20.2918C32.0664 21.34 32.9161 22.1897 33.9643 22.1897Z" fill="#FFF8E9"/>
<path d="M37.5072 27.1955C38.5554 27.1955 39.4051 26.3458 39.4051 25.2976C39.4051 24.2494 38.5554 23.3997 37.5072 23.3997C36.4591 23.3997 35.6094 24.2494 35.6094 25.2976C35.6094 26.3458 36.4591 27.1955 37.5072 27.1955Z" fill="#FFB200"/>
<path d="M19.1724 17.8716H17.3615C16.8663 17.8716 16.4648 18.273 16.4648 18.7683V26.8212C16.4648 27.3164 16.8663 27.7179 17.3615 27.7179H19.1724C19.6676 27.7179 20.0691 27.3164 20.0691 26.8212V18.7683C20.0691 18.273 19.6676 17.8716 19.1724 17.8716Z" fill="#F58D06"/>
<path d="M23.1953 23.6958V21.885C23.1953 21.3897 22.7938 20.9883 22.2986 20.9883H14.2457C13.7505 20.9883 13.349 21.3897 13.349 21.885V23.6958C13.349 24.191 13.7505 24.5925 14.2457 24.5925H22.2986C22.7938 24.5925 23.1953 24.191 23.1953 23.6958Z" fill="#F58D06"/>
<path d="M22.419 34.5693C21.3569 34.6477 20.3209 35.0656 19.5112 35.7707L15.0016 39.6187C13.8002 40.6373 12.2767 41.2032 10.7009 41.2032C7.84538 41.2032 5.6428 38.7133 5.96492 35.8926L7.24468 24.8623C9.90867 29.8072 15.5588 33.5246 22.419 34.5606V34.5693Z" fill="url(#paint0_linear_76_5977)"/>
<path d="M42.0519 41.2032C40.4674 41.2032 38.9526 40.6373 37.7512 39.6187L33.2416 35.7708C32.4145 35.0569 31.3959 34.639 30.3164 34.5694C37.1766 33.5247 42.8354 29.8247 45.4994 24.871L46.7792 35.9014C47.11 38.722 44.8987 41.2119 42.0432 41.2119L42.0519 41.2032Z" fill="#FCCE1D"/>
<path d="M22.419 34.5693C21.3569 34.6477 20.3209 35.0656 19.5112 35.7707L15.0016 39.6187C13.8002 40.6373 12.2767 41.2032 10.7009 41.2032C7.84538 41.2032 5.6428 38.7133 5.96492 35.8926L7.24468 24.8623C9.90867 29.8072 15.5588 33.5246 22.419 34.5606V34.5693Z" fill="#FCCE1D"/>
<path d="M45.1677 25.4456C44.0533 30.9129 40.1705 35.3703 35.0602 37.3204L33.2494 35.7708C32.4223 35.0569 31.4037 34.639 30.3242 34.5694C36.9145 33.5682 42.3905 30.112 45.1677 25.4456Z" fill="#FCCE1D"/>
<path d="M45.1677 25.4456C44.0533 30.9129 40.1705 35.3703 35.0602 37.3204L33.2494 35.7708C32.4223 35.0569 31.4037 34.639 30.3242 34.5694C36.9145 33.5682 42.3905 30.112 45.1677 25.4456Z" fill="#FFB200"/>
<path d="M22.419 34.5694C21.3569 34.6477 20.3296 35.0656 19.5113 35.7708L17.7092 37.3117C12.4421 35.3703 8.47227 30.7736 7.41016 25.141C10.1264 29.9553 15.6894 33.5421 22.419 34.5694Z" fill="#FCCE1D"/>
<path d="M22.419 34.5694C21.3569 34.6477 20.3296 35.0656 19.5113 35.7708L17.7092 37.3117C12.4421 35.3703 8.47227 30.7736 7.41016 25.141C10.1264 29.9553 15.6894 33.5421 22.419 34.5694Z" fill="#FFB200"/>
<defs>
<linearGradient id="paint0_linear_76_5977" x1="6.61786" y1="33.455" x2="27.7034" y2="30.0684" gradientUnits="userSpaceOnUse">
<stop stop-color="#747CEF" stop-opacity="0"/>
<stop offset="1" stop-color="#677EEF"/>
</linearGradient>
</defs>
</svg>
