<svg viewBox="0 0 53 53" fill="none" xmlns="http://www.w3.org/2000/svg">
<path d="M22.7617 23.0951V34.5868C22.7617 37.1464 24.8337 39.2184 27.3932 39.2184H36.1339L40.5042 43.5452C41.3661 44.3983 42.8374 43.7889 42.8374 42.5701V39.2184C45.3969 39.2184 47.4689 37.1464 47.4689 34.5868V23.0951C47.4689 20.5356 45.3969 18.4636 42.8374 18.4636H27.3932C24.8337 18.4636 22.7617 20.5356 22.7617 23.0951Z" fill="#FFB200"/>
<path d="M30.3972 33.1155L33.5139 24.1223C33.836 23.1995 34.6979 22.5814 35.6729 22.5814C36.648 22.5814 37.5186 23.1995 37.832 24.1223L40.9313 33.1068C41.2186 33.9338 40.6004 34.8044 39.7212 34.8044C39.1727 34.8044 38.6765 34.4475 38.511 33.9251L37.8755 31.9837H33.4529L32.8174 33.9251C32.6433 34.4475 32.1558 34.8044 31.6073 34.8044H31.5899C30.7106 34.8044 30.0925 33.9425 30.3798 33.1068L30.3972 33.1155ZM37.2487 30.0162L35.7252 25.3411H35.6381L34.1146 30.0162H37.2574H37.2487Z" fill="#FFF8E9"/>
<path d="M31.041 24.3225C31.041 24.3225 30.893 31.7834 22.7617 34.3517V23.0863L31.041 24.3225Z" fill="#F58D06"/>
<path d="M31.0417 12.8308V24.3225C31.0417 26.8821 28.9697 28.9541 26.4102 28.9541H17.1124L12.742 33.2809C11.8801 34.134 10.4089 33.5246 10.4089 32.3058V28.9541C7.84933 28.9541 5.77734 26.8821 5.77734 24.3225V12.8308C5.77734 10.2713 7.84933 8.19933 10.4089 8.19933H26.4102C28.9697 8.19933 31.0417 10.2713 31.0417 12.8308Z" fill="#FFDE7E"/>
<path d="M17.5738 15.1292H14.222C13.839 15.1292 13.5255 14.8158 13.5255 14.4327C13.5255 14.0496 13.839 13.7362 14.222 13.7362H18.5836C18.9841 13.7362 19.2975 14.0671 19.2801 14.4675C19.0973 17.5929 17.7653 20.3178 14.4222 22.1809C14.074 22.3811 13.63 22.2767 13.3862 21.9545V21.9371C13.0903 21.5541 13.2121 21.0143 13.6213 20.7706C15.9893 19.3776 17.2865 17.5668 17.5738 15.1118V15.1292ZM22.745 17.1576H23.9813C24.3904 17.1576 24.7213 17.4884 24.7213 17.8976C24.7213 18.3068 24.3904 18.6376 23.9813 18.6376H22.745V23.5564C22.745 24.0265 22.362 24.4096 21.8919 24.4096C21.4217 24.4096 21.0387 24.0265 21.0387 23.5564V13.3532C21.0387 12.8831 21.4217 12.5 21.8919 12.5C22.362 12.5 22.745 12.8831 22.745 13.3532V17.1576Z" fill="#FFA200"/>
</svg>
