<svg viewBox="0 0 53 53" fill="none" xmlns="http://www.w3.org/2000/svg">
<path d="M39.1623 12.3695C35.3143 8.52149 28.4628 9.10478 23.8922 13.6754C19.3216 18.2459 18.7296 25.0974 22.5863 28.9454C26.4343 32.7934 33.2858 32.2101 37.8564 27.6395C42.4269 23.069 43.0189 16.2175 39.1623 12.3695Z" fill="#FFF8E9"/>
<path d="M36.8263 20.6574L38.4543 19.0295C38.6545 18.8292 38.6545 18.4984 38.4543 18.2895C38.254 18.0892 37.9232 18.0892 37.7143 18.2895L36.0863 19.9174L34.2145 18.0457L35.8425 16.4177C36.0427 16.2175 36.0427 15.8866 35.8425 15.6777C35.6423 15.4775 35.3114 15.4775 35.1025 15.6777L33.4745 17.3057L31.6028 15.4339L33.2308 13.8059C33.431 13.6057 33.431 13.2749 33.2308 13.0659C33.0305 12.8657 32.6997 12.8657 32.4908 13.0659L30.8628 14.6939L29.2348 13.0659C29.0345 12.8657 28.7037 12.8657 28.4948 13.0659C28.2945 13.2662 28.2945 13.597 28.4948 13.8059L30.1228 15.4339L28.251 17.3057L26.623 15.6777C26.4228 15.4775 26.092 15.4775 25.883 15.6777C25.6828 15.8779 25.6828 16.2088 25.883 16.4177L27.511 18.0457L25.6393 19.9174L24.0113 18.2895C23.811 18.0892 23.4802 18.0892 23.2713 18.2895C23.071 18.4897 23.071 18.8205 23.2713 19.0295L24.8993 20.6574L23.2713 22.2854C23.071 22.4857 23.071 22.8165 23.2713 23.0254C23.3757 23.1299 23.5063 23.1821 23.6369 23.1821C23.7675 23.1821 23.9068 23.1299 24.0026 23.0254L25.6306 21.3974L27.5023 23.2692L25.8743 24.8972C25.6741 25.0974 25.6741 25.4282 25.8743 25.6372C25.9788 25.7417 26.1094 25.7939 26.24 25.7939C26.3705 25.7939 26.5098 25.7417 26.6056 25.6372L28.2336 24.0092L30.1054 25.8809L28.4774 27.5089C28.2771 27.7092 28.2771 28.04 28.4774 28.2489C28.5818 28.3534 28.7124 28.4056 28.843 28.4056C28.9736 28.4056 29.1129 28.3534 29.2087 28.2489L30.8366 26.6209L32.4646 28.2489C32.5691 28.3534 32.6997 28.4056 32.8303 28.4056C32.9609 28.4056 33.1002 28.3534 33.1959 28.2489C33.3962 28.0487 33.3962 27.7179 33.1959 27.5089L31.5679 25.8809L33.4397 24.0092L35.0677 25.6372C35.1722 25.7417 35.3027 25.7939 35.4333 25.7939C35.5639 25.7939 35.7032 25.7417 35.799 25.6372C35.9992 25.437 35.9992 25.1061 35.799 24.8972L34.171 23.2692L36.0427 21.3974L37.6707 23.0254C37.7752 23.1299 37.9058 23.1821 38.0364 23.1821C38.167 23.1821 38.3063 23.1299 38.402 23.0254C38.6023 22.8252 38.6023 22.4944 38.402 22.2854L36.774 20.6574H36.8263ZM30.8628 16.1739L32.7345 18.0457L30.8628 19.9174L28.991 18.0457L30.8628 16.1739ZM26.3793 20.6574L28.251 18.7857L30.1228 20.6574L28.251 22.5292L26.3793 20.6574ZM30.8628 25.141L28.991 23.2692L30.8628 21.3974L32.7345 23.2692L30.8628 25.141ZM33.4745 22.5292L31.6028 20.6574L33.4745 18.7857L35.3463 20.6574L33.4745 22.5292Z" fill="#FFDE7E"/>
<path d="M41.0518 10.4803C36.1504 5.57888 27.6012 6.17088 21.986 11.7861C19.3046 14.4763 17.7723 17.8367 17.4328 21.1449C17.4328 21.1797 17.4241 21.2059 17.4241 21.2407C17.3893 21.5889 17.3806 21.9372 17.3632 22.2767C17.0933 25.6807 16.0834 32.271 13.3672 34.9872L14.6469 36.267L15.2564 36.8764L16.5361 38.1561C19.2523 35.4399 25.834 34.4126 29.2466 34.1602C29.4469 34.1515 29.6384 34.1515 29.8386 34.1253L30.2913 34.0905H30.3697C33.6866 33.7597 37.0471 32.2188 39.7285 29.5287C41.3129 27.9442 42.4882 26.1334 43.2631 24.2268C45.2393 19.3863 44.5602 13.9887 41.0431 10.4803H41.0518ZM16.954 34.5693C17.9378 32.8369 18.6081 30.7823 19.0695 28.8061C19.5222 29.5374 20.062 30.2251 20.6888 30.8519C21.3156 31.4788 22.0034 32.0098 22.7347 32.4538C20.7584 32.9239 18.6952 33.5943 16.9627 34.5693H16.954ZM37.8567 27.6482C35.6541 29.8421 32.9205 31.1131 30.2565 31.4265C30.213 31.4265 30.1433 31.4265 30.0389 31.4352C29.8299 31.4439 29.4991 31.4613 29.0725 31.4962C26.6262 31.5049 24.3104 30.6778 22.5954 28.9541C20.8716 27.2303 20.0446 24.9146 20.0533 22.4769C20.0968 21.8327 20.1229 21.4061 20.1229 21.2755C20.4363 18.6028 21.7074 15.8779 23.9013 13.684C28.4718 9.11345 35.3233 8.53016 39.1713 12.3781C41.992 15.1988 42.4273 19.6301 40.66 23.6087C40.0158 25.0538 39.093 26.4294 37.8654 27.6482H37.8567Z" fill="#FCCE1D"/>
<path d="M14.8692 34.5615L16.9622 36.6546C17.4547 37.147 17.4547 37.9473 16.9622 38.4398L11.8343 43.5677C10.7632 44.6388 9.02717 44.6388 7.95603 43.5677C6.8849 42.4966 6.8849 40.7606 7.95603 39.6894L13.0839 34.5615C13.5764 34.0691 14.3767 34.0691 14.8692 34.5615Z" fill="#F58D06"/>
<path d="M45.0284 40.0627C45.011 40.1411 44.9936 40.2195 44.9849 40.2978C44.8108 41.1771 44.4538 41.978 43.9315 42.6484C42.704 44.2851 40.6233 45.1905 38.4642 44.8597C38.1856 44.8161 37.9071 44.7552 37.6546 44.6681C37.2628 44.555 36.8885 44.3983 36.5402 44.2067C34.5031 43.0663 33.293 40.7505 33.6586 38.3129C34.1461 35.1788 37.0887 33.0284 40.2228 33.5159C43.3569 34.0035 45.516 36.9373 45.0284 40.0715V40.0627Z" fill="#FFB200"/>
<path d="M44.5081 41.6995C43.4373 43.9108 41.0084 45.2602 38.4663 44.8684C37.9787 44.7988 37.5173 44.6595 37.082 44.4767C39.215 43.6409 39.5371 41.4209 38.6143 39.7407C37.0646 36.92 39.1279 34.0906 41.9486 35.4313C44.3514 36.5718 44.9782 39.2183 44.5081 41.7082V41.6995Z" fill="#FFB200"/>
<path d="M44.9837 40.2978C44.8096 41.177 44.4527 41.978 43.9303 42.6483C44.6616 40.2542 44.4614 37.3813 42.2327 35.9884C41.423 35.466 40.4132 35.2571 39.6296 35.6662C38.0278 36.5107 38.3412 38.6262 39.1682 39.9669C39.7341 41.2902 39.6122 42.9617 38.5327 44.0413C38.2715 44.3024 37.9668 44.5114 37.6534 44.6768C37.2616 44.5636 36.8873 44.4069 36.5391 44.2154C37.9494 43.7975 38.9941 42.57 38.6285 40.9507C38.3847 39.9408 37.6621 39.0354 37.6882 37.9385C37.5576 35.1439 40.4306 33.8206 42.607 35.3877C44.3308 36.4759 45.0098 38.3738 44.975 40.3065L44.9837 40.2978Z" fill="#FFE79D"/>
</svg>
