<svg viewBox="0 0 25 24" fill="none" xmlns="http://www.w3.org/2000/svg">
<g id="ic_verify_fill_24">
<path id="Vector" fill-rule="evenodd" clip-rule="evenodd" d="M12.7841 2.36447C12.4523 2.06341 11.9461 2.06341 11.6143 2.36447L9.60443 4.18799C9.43566 4.34112 9.21357 4.42195 8.98586 4.41314L6.27405 4.30816C5.82634 4.29083 5.4386 4.61618 5.37793 5.0601L5.0104 7.74894C4.97954 7.97472 4.86137 8.1794 4.68127 8.31902L2.53643 9.98172C2.18232 10.2562 2.09443 10.7547 2.3333 11.1337L3.78011 13.4298C3.9016 13.6226 3.94264 13.8553 3.89441 14.078L3.32014 16.7304C3.22533 17.1683 3.4784 17.6066 3.90504 17.7435L6.48921 18.5723C6.7062 18.6419 6.88725 18.7939 6.99347 18.9955L8.25847 21.3964C8.46731 21.7928 8.94294 21.966 9.35772 21.7965L11.8701 20.7704C12.081 20.6842 12.3174 20.6842 12.5284 20.7704L15.0407 21.7965C15.4555 21.966 15.9311 21.7928 16.14 21.3964L17.405 18.9955C17.5112 18.7939 17.6922 18.6419 17.9092 18.5723L20.4934 17.7435C20.92 17.6066 21.1731 17.1683 21.0783 16.7304L20.504 14.078C20.4558 13.8553 20.4968 13.6226 20.6183 13.4298L22.0651 11.1337C22.304 10.7547 22.2161 10.2562 21.862 9.98172L19.7172 8.31901C19.5371 8.1794 19.4189 7.97472 19.388 7.74894L19.0205 5.0601C18.9598 4.61618 18.5721 4.29083 18.1244 4.30816L15.4126 4.41314C15.1849 4.42195 14.9628 4.34112 14.794 4.18799L12.7841 2.36447ZM15.9993 9.28972C16.2277 9.04933 16.6077 9.03959 16.8481 9.26796C17.0885 9.49633 17.0982 9.87634 16.8699 10.1167L11.1664 16.1203C11.0536 16.2391 10.8971 16.3066 10.7333 16.3072C10.5696 16.3078 10.4126 16.2415 10.2989 16.1236L7.59728 13.3219C7.36712 13.0832 7.37403 12.7032 7.6127 12.473C7.85138 12.2429 8.23145 12.2498 8.46161 12.4884L10.7279 14.8386L15.9993 9.28972Z" fill="currentColor"/>
</g>
</svg>
