<svg viewBox="0 0 53 53" fill="none" xmlns="http://www.w3.org/2000/svg">
<path d="M42.9648 40.3065V28.7538C42.9648 27.1239 41.6435 25.8026 40.0136 25.8026H16.9605C15.3305 25.8026 14.0092 27.1239 14.0092 28.7538V40.3065C14.0092 41.9364 15.3305 43.2578 16.9605 43.2578H40.0136C41.6435 43.2578 42.9648 41.9364 42.9648 40.3065Z" fill="#FFB200"/>
<path d="M41.5271 26.2292L23.4363 39.3227C23.2361 39.462 22.9575 39.3924 22.853 39.1747L16.6719 25.8113L40.0471 25.8026C40.5868 25.8026 41.0831 25.9506 41.5096 26.2292H41.5271Z" fill="#F58D06"/>
<path d="M30.2177 38.4957L28.7116 37.216C28.5549 37.0854 28.3459 37.0418 28.1544 37.0941L26.2391 37.6077C25.7429 37.7383 25.3163 37.2508 25.5078 36.7807L26.2565 34.9524C26.3349 34.7609 26.3175 34.552 26.2043 34.3779L25.1248 32.715C24.8462 32.2885 25.177 31.7226 25.6907 31.7661L27.6669 31.9141C27.8671 31.9315 28.0674 31.8445 28.1979 31.6878L29.4429 30.1468C29.765 29.7463 30.4005 29.8943 30.5224 30.3906L30.9925 32.3146C31.0448 32.5148 31.184 32.6715 31.3756 32.7412L33.2299 33.4463C33.7087 33.6292 33.7697 34.2821 33.3344 34.5433L31.6455 35.5793C31.4713 35.6837 31.3669 35.8666 31.3495 36.0755L31.2537 38.0517C31.2276 38.5654 30.6269 38.8178 30.2351 38.487L30.2177 38.4957Z" fill="#F58D06"/>
<path d="M32.133 33.0372L25.8474 37.5903C25.5514 37.4684 25.3685 37.1202 25.5078 36.7807L26.2565 34.9524C26.3349 34.7609 26.3175 34.552 26.2043 34.3779L25.1248 32.7237C24.8462 32.2885 25.177 31.7313 25.6907 31.7661L27.6582 31.9141C27.8671 31.9315 28.0586 31.8445 28.1892 31.6878L29.4342 30.1468C29.7563 29.7463 30.3918 29.8943 30.5137 30.3906L30.9751 32.3146C31.0273 32.5148 31.1666 32.6715 31.3582 32.7412L32.133 33.0372Z" fill="#EA6911"/>
<path d="M42.5278 20.257L23.6796 39.1051C22.5479 40.2369 20.7283 40.2369 19.5966 39.1051L9.75898 29.2675C8.62722 28.1358 8.62722 26.3075 9.75898 25.1845L28.6071 6.33635C28.6855 6.25799 28.7464 6.19705 28.8248 6.13611C28.9815 6.00552 29.1382 5.90976 29.3123 5.814C29.4864 5.73564 29.6518 5.666 29.8346 5.60506C30.0175 5.56153 30.1916 5.518 30.3744 5.50059C31.2102 5.42223 32.0633 5.70082 32.6989 6.33635L35.2932 8.93069C35.5979 9.23539 35.6153 9.6881 35.4064 10.0624C34.8144 11.0984 34.9624 12.4391 35.8417 13.3184C36.721 14.1977 38.053 14.337 39.089 13.7537C39.4546 13.5448 39.916 13.5622 40.2207 13.8669L42.5278 16.1739C43.6595 17.3057 43.6595 19.1426 42.5278 20.2657V20.257Z" fill="#FFDE7E"/>
<path d="M26.5873 27.5959H24.7329C24.5414 27.5959 24.3673 27.6917 24.2541 27.8484L23.2007 29.3806C22.9308 29.7724 22.3214 29.6853 22.1734 29.2326L21.5988 27.4654C21.5379 27.2825 21.3986 27.1432 21.2158 27.091L19.4311 26.5599C18.9697 26.4207 18.8652 25.8199 19.257 25.5414L20.7631 24.4444C20.9198 24.3312 21.0068 24.1484 20.9981 23.9656L20.9459 22.1113C20.9372 21.6324 21.477 21.3451 21.86 21.6237L23.3661 22.712C23.5228 22.8251 23.7231 22.8513 23.8972 22.7903L25.647 22.1722C26.0998 22.0155 26.535 22.4421 26.387 22.8948L25.8125 24.6621C25.7515 24.8449 25.7863 25.0451 25.8995 25.1931L27.0313 26.6644C27.3273 27.0475 27.0487 27.5959 26.5699 27.5959H26.5873Z" fill="#FFA200"/>
<path d="M36.3202 22.9384L35.0404 21.6586C34.9795 21.5977 34.9795 21.5019 35.0404 21.4497L35.4757 21.0144C35.5366 20.9534 35.6324 20.9534 35.6846 21.0144L36.9644 22.2941C37.0253 22.3551 37.0253 22.4508 36.9644 22.5031L36.5291 22.9384C36.4682 22.9993 36.3724 22.9993 36.3202 22.9384ZM33.3428 19.961L32.063 18.6812C32.0021 18.6203 32.0021 18.5245 32.063 18.4723L32.4983 18.037C32.5592 17.976 32.655 17.976 32.7072 18.037L33.987 19.3167C34.0479 19.3777 34.0479 19.4735 33.987 19.5257L33.5517 19.961C33.4908 20.0219 33.395 20.0219 33.3428 19.961ZM30.3654 16.9836L29.0856 15.7038C29.0247 15.6429 29.0247 15.5471 29.0856 15.4949L29.5209 15.0596C29.5818 14.9986 29.6776 14.9986 29.7298 15.0596L31.0096 16.3393C31.0705 16.4003 31.0705 16.4961 31.0096 16.5483L30.5743 16.9836C30.5134 17.0445 30.4176 17.0445 30.3654 16.9836ZM27.388 14.0062L26.1082 12.7264C26.0473 12.6655 26.0473 12.5697 26.1082 12.5175L26.5435 12.0822C26.6044 12.0212 26.7002 12.0212 26.7524 12.0822L28.0322 13.3619C28.0931 13.4229 28.0931 13.5187 28.0322 13.5709L27.5969 14.0062C27.536 14.0671 27.4402 14.0671 27.388 14.0062Z" fill="#FFA200"/>
</svg>
