<svg viewBox="0 0 53 53" fill="none" xmlns="http://www.w3.org/2000/svg">
<path d="M7.41416 14.7636C7.82333 14.3545 8.49368 14.3545 8.91156 14.7636L15.6412 21.4932C16.1026 21.9547 16.8426 21.9547 17.2953 21.4932C17.748 21.0318 17.7567 20.318 17.3214 19.8565L10.7746 12.9441C10.3567 12.5001 10.3741 11.8124 10.8007 11.3858C11.2273 10.9592 11.9151 10.9505 12.3591 11.3596L19.2715 17.9064C19.7329 18.3417 20.4555 18.333 20.9082 17.8803C21.3609 17.4276 21.3696 16.6789 20.9082 16.2262L14.1786 9.4966C13.7694 9.08742 13.7694 8.41707 14.1786 7.99919C14.5617 7.61614 15.1798 7.58131 15.6064 7.93825L23.7898 16.2001C25.5484 17.9761 25.8967 20.5965 24.8868 22.7382L29.823 27.6744L27.0981 30.3993L22.1619 25.4631C20.0289 26.4817 17.3998 26.1248 15.6238 24.3662L7.36192 16.1827C7.01369 15.7648 7.03981 15.1467 7.42286 14.7549L7.41416 14.7636Z" fill="#FFDE7E"/>
<path d="M43.1352 43.7192C44.7284 42.1261 44.6501 39.5143 42.9698 38.0169L31.7915 28.0922C30.5901 27.0301 28.7706 27.0824 27.6388 28.2141C26.5071 29.3459 26.4549 31.1654 27.517 32.3668L37.4416 43.5451C38.939 45.234 41.5508 45.3124 43.1439 43.7105L43.1352 43.7192Z" fill="#FFB200"/>
<path d="M31.7915 28.0922C30.5901 27.0301 28.7706 27.0824 27.6388 28.2141C26.5071 29.3459 26.4549 31.1654 27.517 32.3668L29.3713 34.4562L32.784 28.9802L31.7828 28.0922H31.7915Z" fill="#F58D06"/>
<path d="M33.1727 12.7003C37.16 8.71297 42.4009 8.33862 45.0301 10.9591C47.755 13.684 46.9367 19.1687 43.2889 22.8164C39.8936 26.2117 36.2111 27.7004 32.9638 25.759L28.4281 30.2948L25.7031 27.5698L30.2476 23.0254C28.4019 19.9 29.6556 16.2261 33.1814 12.7003H33.1727Z" fill="#FFDE7E"/>
<path d="M12.3514 43.6408C13.9445 45.234 16.5563 45.1556 18.0537 43.4754L27.9784 32.2971C29.0405 31.0957 28.9882 29.2762 27.8565 28.1444C26.7247 27.0127 24.9052 26.9604 23.7038 28.0225L12.5255 37.9472C10.8365 39.4446 10.7582 42.0564 12.3601 43.6495L12.3514 43.6408Z" fill="#FCCE1D"/>
</svg>
