<svg viewBox="0 0 53 53" fill="none" xmlns="http://www.w3.org/2000/svg">
<path d="M40.7131 10.7676V37.2072H39.6772V41.8996H40.7131V41.9171C40.7131 42.6135 40.1386 43.1707 39.4508 43.1707H17.0246C14.8916 43.1707 13.1505 41.4992 13.0547 39.3924C13.0547 39.3314 13.0547 39.2618 13.0547 39.1921V13.3358C13.0547 10.6718 15.2137 8.51274 17.8864 8.51274H38.4757C39.7294 8.51274 40.7306 9.51391 40.7306 10.7676H40.7131Z" fill="#FCCE1D"/>
<path d="M18.4097 8.51274V43.162H17.0167C14.8838 43.162 13.1426 41.4905 13.0469 39.3837C13.0469 39.3227 13.0469 39.2531 13.0469 39.1834V13.3358C13.0469 10.6718 15.2059 8.51274 17.8786 8.51274H18.4184H18.4097Z" fill="#FFB200"/>
<path d="M16.956 41.9083C15.6589 41.9083 14.6055 40.8549 14.6055 39.5578C14.6055 38.9048 14.8753 38.3215 15.2932 37.8949C15.7198 37.4771 16.3031 37.2072 16.956 37.2072H39.6783V41.8996" fill="#FFE79D"/>
<path d="M22.2384 17.3057L36.873 17.3057C37.0941 17.3057 37.2734 17.1264 37.2734 16.9052V13.9452C37.2734 13.7241 37.0941 13.5448 36.873 13.5448L22.2384 13.5448C22.0173 13.5448 21.838 13.7241 21.838 13.9452V16.9052C21.838 17.1264 22.0173 17.3057 22.2384 17.3057Z" fill="#FFF8E9"/>
<path d="M22.8675 46.7401L21.2396 45.6257C21.0916 45.5213 20.8913 45.5213 20.7346 45.6257L19.1066 46.7401C18.8106 46.9403 18.4102 46.7401 18.4102 46.3744V39.2792H23.564V46.3744C23.564 46.7314 23.1635 46.9403 22.8675 46.7401Z" fill="#F58D06"/>
</svg>
